<?xml version="1.0" encoding="utf-8"?>
<!-- Generator: Adobe Illustrator 20.1.0, SVG Export Plug-In . SVG Version: 6.00 Build 0)  -->
<svg version="1.1" id="Layer_1" xmlns="http://www.w3.org/2000/svg" xmlns:xlink="http://www.w3.org/1999/xlink" x="0px" y="0px"
	 viewBox="0 0 30 30" style="enable-background:new 0 0 30 30;" xml:space="preserve">
<style type="text/css">
	.st0{display:none;}
	.st1{display:inline;fill:#6FC6CA;}
	.st2{display:inline;}
	.st3{fill:#6FC6CA;}
</style>
<g class="st0">
	<path class="st1" d="M26.7,1.4H15.6c-1.3,0-2.4,1-2.4,2.3v23.9c0,1.3,1.1,2.3,2.4,2.3h11.1c1.3,0,2.4-1,2.4-2.3V3.7
		C29.1,2.4,28,1.4,26.7,1.4z M28,27.5c0,0.7-0.6,1.2-1.3,1.2H15.6c-0.7,0-1.3-0.6-1.3-1.2V3.7c0-0.7,0.6-1.2,1.3-1.2h11.1
		C27.4,2.4,28,3,28,3.7C28,3.7,28,27.5,28,27.5z"/>
	<path class="st1" d="M15.4,24.7H27V6.5H15.4V24.7z M15.7,6.8h10.9v17.6H15.7V6.8z"/>
	<rect x="16.4" y="7.5" class="st1" width="4.6" height="3.2"/>
	<rect x="21.3" y="7.5" class="st1" width="4.6" height="3.2"/>
	<rect x="16.4" y="11" class="st1" width="4.6" height="3.5"/>
	<rect x="21.3" y="11" class="st1" width="4.6" height="3.5"/>
	<path class="st1" d="M21.2,25.6c-0.7,0-1.2,0.6-1.2,1.2s0.6,1.2,1.2,1.2c0.7,0,1.2-0.6,1.2-1.2S21.8,25.6,21.2,25.6z M21.2,27.7
		c-0.5,0-0.9-0.4-0.9-0.9s0.4-0.9,0.9-0.9c0.5,0,0.9,0.4,0.9,0.9S21.7,27.7,21.2,27.7z"/>
	<path class="st1" d="M19.8,4.9h2.6c0.3,0,0.5-0.2,0.5-0.5c0-0.3-0.2-0.5-0.5-0.5h-2.6c-0.3,0-0.5,0.2-0.5,0.5
		C19.3,4.6,19.5,4.9,19.8,4.9z"/>
	<rect x="16.4" y="14.9" class="st1" width="4.6" height="3.5"/>
</g>
<g class="st0">
	<g class="st2">
		<path class="st3" d="M14.9,27c-0.4-0.2-0.8,0-1,0.4l-0.7,1.5c-0.2,0.4,0,0.8,0.4,1c0.1,0,0.2,0.1,0.3,0.1c0.3,0,0.5-0.2,0.7-0.5
			l0.7-1.5C15.4,27.6,15.3,27.2,14.9,27z"/>
	</g>
	<g class="st2">
		<path class="st3" d="M13.4,25.3c-0.4-0.2-0.8,0-1,0.4L11.3,28c-0.2,0.4,0,0.8,0.4,1c0.1,0,0.2,0.1,0.3,0.1c0.3,0,0.5-0.2,0.7-0.4
			l1.1-2.3C14,26,13.8,25.5,13.4,25.3z"/>
	</g>
	<g class="st2">
		<path class="st3" d="M12,23.7c-0.4-0.2-0.8,0-1,0.3l-1.5,3.1c-0.2,0.4,0,0.8,0.3,1c0.1,0,0.2,0.1,0.3,0.1c0.3,0,0.5-0.2,0.7-0.4
			l1.5-3.1C12.5,24.3,12.3,23.9,12,23.7z"/>
	</g>
	<g class="st2">
		<path class="st3" d="M10,23.2c-0.4-0.2-0.8,0-1,0.3l-1.2,2.5c-0.2,0.4,0,0.8,0.3,1c0.1,0,0.2,0.1,0.3,0.1c0.3,0,0.5-0.2,0.7-0.4
			l1.2-2.5C10.5,23.9,10.3,23.4,10,23.2z"/>
	</g>
	<g class="st2">
		<path class="st3" d="M24.8,23.7l-8.1-3.4c-0.4,0-1.9,0.2-2.8,0.7c-0.9,0.5-1.9,0.7-2.5,0.7c-0.2,0-0.3,0-0.5-0.1
			c-0.3-0.2-0.5-0.5-0.5-0.8c0-0.3,0.1-0.6,0.3-0.8c0.1-0.1,0.3-0.2,0.5-0.4c0.5-0.4,1-0.8,1.3-1.1c0,0,0.1-0.1,0.2-0.1
			c0.3-0.2,1-0.5,1.8-0.8C13.7,17.3,13,17,12.6,17c-1-0.2-4.2,1-4.2,1l-5.1-2.2l0,0h0l-2.6,6.1l5.4,2.3c0.5,0.5,1,0.9,1.5,1.3l1-2.1
			c0.3-0.5,0.9-0.8,1.5-0.5c0.4,0.2,0.6,0.5,0.6,0.9c0.3-0.5,0.9-0.7,1.4-0.4s0.8,0.9,0.5,1.5L12.5,25c0.3-0.2,0.7-0.2,1,0
			c0.5,0.3,0.8,0.9,0.5,1.5l-0.1,0.2c0.3-0.2,0.7-0.2,1,0c0.5,0.3,0.8,0.8,0.6,1.4l3.9,1.6c0.1,0,0.2,0.1,0.3,0.1
			c0.3,0,0.5-0.2,0.7-0.5c0.2-0.3,0-0.7-0.3-0.9l-4.2-1.8c-0.2-0.1-0.2-0.2-0.2-0.4c0.1-0.2,0.2-0.2,0.4-0.2l0.4,0.2l4.8,2
			c0.1,0,0.2,0.1,0.3,0.1c0.3,0,0.5-0.2,0.7-0.5c0.2-0.3,0-0.7-0.3-0.9l-3.5-1.5L17.3,25l-0.5-0.3c-0.2-0.1-0.2-0.2-0.2-0.4
			c0.1-0.2,0.2-0.2,0.4-0.2l6.2,2.6c0.1,0,0.2,0.1,0.3,0.1c0.3,0,0.5-0.2,0.7-0.5c0.2-0.4,0-0.8-0.4-1l-5.2-2.2l0,0l-0.8-0.4
			c-0.2-0.1-0.2-0.2-0.2-0.4c0.1-0.2,0.2-0.2,0.4-0.2l5.8,2.5c0,0,0,0,0.1,0l0.3,0.2c0.1,0,0.2,0.1,0.3,0.1c0.3,0,0.5-0.2,0.7-0.5
			C25.2,24.3,25.1,23.9,24.8,23.7z"/>
	</g>
	<g class="st2">
		<path class="st3" d="M26.7,15.9L21.5,18c0,0-3.1-1.2-4.2-1c-0.5,0.1-1.4,0.4-2.3,0.7l0,0c-0.4,0.2-0.8,0.3-1.1,0.4l0,0
			c-0.5,0.2-1,0.4-1.1,0.5c0,0,0,0,0,0c-0.3,0.3-1.5,1.2-1.8,1.5c-0.3,0.3-0.1,0.9,0.2,1c0,0,0,0,0.1,0c0,0,0,0,0,0s0.1,0,0.2,0l0,0
			c0,0,0,0,0,0s0.1,0,0.2,0h0c0.1,0,0.2,0,0.2,0h0c0.2,0,0.3-0.1,0.5-0.1c0,0,0,0,0.1,0c0.1,0,0.2,0,0.3-0.1h0
			c0.1,0,0.2-0.1,0.3-0.1h0c0.1,0,0.2-0.1,0.3-0.1c0,0,0,0,0.1,0c0.1,0,0.2-0.1,0.3-0.2c0.8-0.4,2.1-0.6,2.6-0.7c0.2,0,0.3,0,0.3,0
			l2.3,1l0,0l6.4,2.8l3.9-1.6L26.7,15.9z"/>
	</g>
</g>
<g id="Layer_2" class="st0">
</g>
<g>
	<g>
		<path class="st3" d="M23.8,4.6l-0.7,0.7l-1.5,1.5c-1.9,1.9-3.8,3.8-5.7,5.7c-0.1,0.1-0.3,0.3-0.4,0.5c-0.4,0.9-0.9,1.8-1.3,2.8
			L14,16.4c-0.1,0.2-0.1,0.3-0.2,0.5c-0.1,0.5,0.2,0.9,0.6,1c0.1,0,0.3,0,0.4,0c0.1,0,0.3-0.1,0.4-0.2l0.6-0.3
			c0.8-0.4,1.5-0.7,2.2-1.1l0.1,0c0.4-0.2,0.7-0.4,1.1-0.7c1-1,2-2,3-3l4.3-4.3c0,0,0,0,0.1-0.1L27,7.8L23.8,4.6z M17.8,15
			c-0.4,0.2-0.8,0.4-1.2,0.6c0,0-0.1,0-0.1,0v0v0c0,0,0,0-0.1,0c0,0-0.1-0.1-0.1-0.2c0,0-0.1-0.1-0.1-0.1c0,0,0-0.1,0-0.1
			c0.2-0.4,0.4-0.9,0.7-1.3l0.1-0.3c0,0,0,0,0,0l0.7,0.7c0.2,0.2,0.4,0.4,0.7,0.7L17.8,15z"/>
	</g>
	<path class="st3" d="M28.8,4.4c-0.5-0.5-1-1-1.6-1.6C26.7,2.4,26,2.4,25.4,3c-0.3,0.3-0.5,0.5-0.8,0.8L24.4,4l0,0l0,0l0.2,0.2
		l0.1,0.1L27.3,7l0.3,0.3l0.3-0.3c0.3-0.3,0.5-0.5,0.8-0.8C29.2,5.7,29.2,4.9,28.8,4.4z"/>
	<path class="st3" d="M26.5,23.1c0,1.4-0.6,2-2,2c-2.7,0-5.4,0-8.1,0c0,0.5,0.1,1.1,0.1,1.6c0,0.2,0,0.4,0.1,0.6v0
		c0.2,0.4,0.4,0.7,0.8,0.9c0.1,0,0.2,0.1,0.3,0.2c0,0,0,0,0.1,0c0.2,0.1,0.4,0.3,0.7,0.4c0.2,0.1,0.3,0.2,0.3,0.4
		c0,0.2-0.3,0.2-0.4,0.2c-3.1,0-6.3,0-9.5,0c-0.1,0-0.1,0-0.2,0c-0.2,0-0.3-0.2-0.2-0.4c0-0.1,0.1-0.2,0.3-0.3
		c0.2-0.1,0.4-0.3,0.7-0.4c0,0,0,0,0,0c0.1-0.1,0.3-0.2,0.4-0.3c0.4-0.2,0.6-0.5,0.7-0.8c0,0,0-0.1,0-0.1c0-0.1,0.1-0.2,0.1-0.4
		c0-0.4,0.1-0.9,0.1-1.3c0-0.1,0-0.3,0-0.4H2.9c-1.3,0-2-0.6-2-2V7.7c0-1.3,0.7-2,2-2c6,0,11.4,0,17.4,0l-1,1
		c-0.4,0.4-0.8,0.8-1.1,1.1H3.7C3,7.9,3,7.9,3,8.6c0,3.9,0,7.8,0,11.7C3,20.7,3.1,21,3.7,21c6.7,0,13.4,0,20.2,0
		c0.7,0,0.7,0,0.7-0.7v-7.6l2-2C26.5,15,26.5,18.8,26.5,23.1z"/>
</g>
<g class="st0">
	<g class="st2">
		<rect x="16.4" y="15.9" class="st3" width="9.8" height="9.8"/>
		<rect x="3.9" y="15.9" class="st3" width="9.8" height="0.4"/>
		<rect x="3.9" y="17.3" class="st3" width="9.8" height="0.4"/>
		<rect x="3.9" y="18.6" class="st3" width="9.8" height="0.4"/>
		<rect x="3.9" y="19.9" class="st3" width="9.8" height="0.4"/>
		<rect x="3.9" y="21.3" class="st3" width="9.8" height="0.4"/>
		<rect x="3.9" y="22.6" class="st3" width="9.8" height="0.4"/>
		<rect x="3.9" y="23.9" class="st3" width="9.8" height="0.4"/>
		<rect x="3.9" y="25.3" class="st3" width="9.8" height="0.4"/>
		<rect x="3.9" y="8.8" class="st3" width="22.2" height="4.9"/>
		<rect x="2.3" y="6.3" class="st3" width="25.3" height="0.4"/>
		<path class="st3" d="M0.8,5.4v0.5v4.2l0.8,0.5v12.5l-0.8,0.6v6.2h28.4v-6.2l-0.8-0.5V10.6l0.8-0.6V5.9V5.4V3.2H0.8L0.8,5.4
			L0.8,5.4z M3.9,29.4l0.9-1.1h21l0.9,1.1H3.9z M1.3,5.9V5.3V3.6h27.5v1.7v0.5v4l-0.6,0.4L28,10.4v0.2v12.5v0.2l0.2,0.1l0.6,0.4v5.5
			h-1.7l-1.2-1.6H4.5l-1.2,1.6h-2v-5.5l0.6-0.4L2,23.3v-0.2V10.6v-0.2l-0.2-0.1L1.3,9.8V5.9L1.3,5.9z"/>
		<circle class="st3" cx="3.2" cy="5" r="0.4"/>
		<circle class="st3" cx="4.5" cy="5" r="0.4"/>
		<circle class="st3" cx="5.8" cy="5" r="0.4"/>
		<polygon class="st3" points="26.2,5.5 26.4,5.7 27.2,5 26.4,4.2 26.2,4.5 26.6,4.8 25.4,4.8 25.4,5.2 26.6,5.2 		"/>
	</g>
</g>
</svg>
